<svg width="238" height="46" fill="none" xmlns="http://www.w3.org/2000/svg"><rect width="238" height="46" rx="2" fill="#000"/><path d="M100.071 21c-.378-2.088-2.049-3.321-4.097-3.321-2.605 0-4.494 2.009-4.494 5.23 0 3.222 1.889 5.23 4.494 5.23 2.048 0 3.719-1.233 4.097-3.32h-1.233c-.299 1.411-1.512 2.167-2.864 2.167-1.85 0-3.301-1.432-3.301-4.077s1.452-4.077 3.301-4.077c1.352 0 2.565.756 2.864 2.168h1.233zm4.935 7.16c2.068 0 3.46-1.572 3.46-3.938 0-2.387-1.392-3.958-3.46-3.958s-3.46 1.571-3.46 3.958c0 2.366 1.392 3.937 3.46 3.937zm0-1.055c-1.571 0-2.287-1.352-2.287-2.883 0-1.532.716-2.904 2.287-2.904s2.287 1.372 2.287 2.904c0 1.53-.716 2.883-2.287 2.883zm4.774-1.054c.04 1.253 1.238 2.108 2.864 2.108 1.67 0 2.883-.895 2.883-2.287 0-.954-.571-1.73-1.431-1.79v-.08c.725-.223 1.272-.75 1.272-1.61 0-1.208-1.034-2.128-2.645-2.128-1.591 0-2.724.875-2.764 2.108h1.233c.035-.631.696-1.074 1.591-1.074.89 0 1.392.453 1.392 1.134 0 .636-.437 1.114-1.372 1.114h-1.313v1.053h1.313c.935 0 1.531.512 1.531 1.273 0 .87-.77 1.233-1.71 1.233-.92 0-1.536-.363-1.591-1.054h-1.253zm6.58 4.137h1.173V28h5.648v2.188h1.173v-3.282h-1.173v-6.542h-4.852l-.259 3.022c-.184 2.138-.457 2.874-1.074 3.52h-.636v3.282zm1.969-3.282c.537-.706.731-1.924.895-3.52l.199-1.929h2.585v5.45h-3.679zm9.83 1.273c1.332 0 2.028-.716 2.267-1.213h.06V28h1.173v-5.031c0-2.426-1.85-2.705-2.824-2.705-1.153 0-2.466.398-3.062 1.79l1.113.398c.259-.557.87-1.154 1.989-1.154 1.079 0 1.611.572 1.611 1.551v.04c0 .567-.577.517-1.969.696-1.417.184-2.963.497-2.963 2.247 0 1.492 1.153 2.347 2.605 2.347zm.179-1.054c-.935 0-1.611-.418-1.611-1.233 0-.895.815-1.173 1.73-1.293.497-.06 1.83-.198 2.029-.437v1.074c0 .954-.756 1.889-2.148 1.889zm4.423-5.668h2.526V28h1.173v-6.543h2.506v-1.093h-6.205v1.093zm9.09 1.67v-2.763h-1.174V28h3.202c1.79 0 2.764-1.094 2.764-2.466 0-1.392-.974-2.406-2.764-2.406h-2.028zm0 1.095h2.028c.93 0 1.591.566 1.591 1.372 0 .77-.661 1.312-1.591 1.312h-2.028v-2.684z" fill="#fff"/></svg>