<svg width="358" height="51" fill="none" xmlns="http://www.w3.org/2000/svg"><rect y=".337" width="358" height="50.152" rx="2" fill="#000"/><path d="M155.162 23c-.486-2.685-2.633-4.27-5.267-4.27-3.349 0-5.778 2.582-5.778 6.724 0 4.143 2.429 6.725 5.778 6.725 2.634 0 4.781-1.585 5.267-4.27h-1.585c-.383 1.815-1.943 2.787-3.682 2.787-2.378 0-4.244-1.84-4.244-5.242 0-3.4 1.866-5.24 4.244-5.24 1.739 0 3.299.97 3.682 2.786h1.585zm6.346 9.205c2.659 0 4.449-2.02 4.449-5.063 0-3.068-1.79-5.088-4.449-5.088s-4.449 2.02-4.449 5.088c0 3.043 1.79 5.063 4.449 5.063zm0-1.356c-2.02 0-2.94-1.738-2.94-3.707 0-1.969.92-3.733 2.94-3.733s2.94 1.764 2.94 3.733-.92 3.707-2.94 3.707zm6.138-1.355c.051 1.611 1.592 2.71 3.682 2.71 2.147 0 3.707-1.15 3.707-2.94 0-1.227-.735-2.224-1.841-2.3v-.103c.933-.288 1.637-.965 1.637-2.071 0-1.553-1.33-2.736-3.401-2.736-2.045 0-3.503 1.125-3.554 2.71h1.585c.045-.812.895-1.38 2.046-1.38 1.144 0 1.79.581 1.79 1.457 0 .818-.563 1.432-1.765 1.432h-1.687v1.355h1.687c1.202 0 1.969.658 1.969 1.636 0 1.119-.991 1.585-2.199 1.585-1.182 0-1.975-.466-2.045-1.355h-1.611zm8.46 5.319h1.508V32h7.262v2.813h1.508v-4.22h-1.508v-8.411h-6.239l-.332 3.886c-.237 2.749-.588 3.695-1.381 4.526h-.818v4.218zm2.531-4.22c.69-.907.94-2.473 1.151-4.525l.255-2.48h3.324v7.006h-4.73zm12.639 1.637c1.713 0 2.608-.92 2.915-1.56h.076V32h1.509v-6.469c0-3.12-2.378-3.477-3.631-3.477-1.483 0-3.17.511-3.937 2.301l1.431.511c.333-.715 1.119-1.482 2.557-1.482 1.387 0 2.071.735 2.071 1.994v.051c0 .729-.741.665-2.531.895-1.822.236-3.81.64-3.81 2.89 0 1.917 1.483 3.016 3.35 3.016zm.23-1.355c-1.202 0-2.071-.537-2.071-1.585 0-1.15 1.048-1.509 2.224-1.662.639-.077 2.353-.256 2.608-.563v1.381c0 1.227-.971 2.429-2.761 2.429zm5.687-7.287h3.247V32h1.509v-8.412h3.221v-1.406h-7.977v1.406zm11.686 2.148v-3.554h-1.508V32h4.116c2.302 0 3.554-1.406 3.554-3.17 0-1.79-1.252-3.094-3.554-3.094h-2.608zm0 1.406h2.608c1.196 0 2.046.729 2.046 1.764 0 .991-.85 1.688-2.046 1.688h-2.608v-3.452z" fill="#fff"/></svg>